<svg width="8" height="8" viewBox="0 0 8 8" fill="none" xmlns="http://www.w3.org/2000/svg">
<path d="M7.00002 3.52748C7.09258 4.15167 6.98597 4.78914 6.69534 5.34924C6.40472 5.90934 5.94488 6.36354 5.38124 6.64724C4.8176 6.93093 4.17886 7.02968 3.55586 6.92943C2.93287 6.82918 2.35734 6.53504 1.91115 6.08885C1.46496 5.64266 1.17082 5.06714 1.07058 4.44414C0.970327 3.82115 1.06907 3.1824 1.35277 2.61876C1.63647 2.05512 2.09066 1.59529 2.65076 1.30466C3.21086 1.01404 3.84834 0.907423 4.47252 0.999982C5.10922 1.0944 5.69866 1.39108 6.15379 1.84621C6.60893 2.30134 6.90561 2.89079 7.00002 3.52748Z" stroke="white" stroke-width="1.4" stroke-linecap="round" stroke-linejoin="round"/>
</svg>
